<svg xmlns="http://www.w3.org/2000/svg" xmlns:xlink="http://www.w3.org/1999/xlink" preserveAspectRatio="xMidYMid" width="81" height="81" viewBox="0 0 81 81">
  <defs>
    <style>

      .cls-3 {
        stroke: #ffffff;
        stroke-width: 1px;
        fill: none;
      }
    </style>
  </defs>
  <g id="hoversvg">
    <circle id="circle-1" class="cls-3" cx="40" cy="40" r="40"/>
    <path d="M52.500,41.500 C52.500,41.500 41.500,41.500 41.500,41.500 C41.500,41.500 41.500,52.500 41.500,52.500 C41.500,52.500 40.500,52.500 40.500,52.500 C40.500,52.500 40.500,41.500 40.500,41.500 C40.500,41.500 29.500,41.500 29.500,41.500 C29.500,41.500 29.500,40.500 29.500,40.500 C29.500,40.500 40.500,40.500 40.500,40.500 C40.500,40.500 40.500,29.500 40.500,29.500 C40.500,29.500 41.500,29.500 41.500,29.500 C41.500,29.500 41.500,40.500 41.500,40.500 C41.500,40.500 52.500,40.500 52.500,40.500 C52.500,40.500 52.500,41.500 52.500,41.500 Z" id="path-1" class="cls-3" fill-rule="evenodd"/>
  </g>
</svg>
