<svg xmlns="http://www.w3.org/2000/svg" xmlns:xlink="http://www.w3.org/1999/xlink" preserveAspectRatio="xMidYMid" width="21" height="21" viewBox="0 0 21 21">
  <defs>
    <style>

      .cls-2 {
        fill: #1f1f1f;
      }
    </style>
  </defs>
  <path d="M21.000,11.000 C21.000,11.000 11.000,11.000 11.000,11.000 C11.000,11.000 11.000,21.000 11.000,21.000 C11.000,21.000 10.000,21.000 10.000,21.000 C10.000,21.000 10.000,11.000 10.000,11.000 C10.000,11.000 -0.000,11.000 -0.000,11.000 C-0.000,11.000 -0.000,10.000 -0.000,10.000 C-0.000,10.000 10.000,10.000 10.000,10.000 C10.000,10.000 10.000,-0.000 10.000,-0.000 C10.000,-0.000 11.000,-0.000 11.000,-0.000 C11.000,-0.000 11.000,10.000 11.000,10.000 C11.000,10.000 21.000,10.000 21.000,10.000 C21.000,10.000 21.000,11.000 21.000,11.000 Z" id="path-1" class="cls-2" fill-rule="evenodd"/>
</svg>
